<svg>
  <g xmlns="http://www.w3.org/2000/svg" fill="#ff471f">
    <path d="m87.955 49.878-28.6-28.6A17.895 17.895 0 0 0 46.615 16a17.893 17.893 0 0 0-12.738 5.276l-28.6 28.6A17.89 17.89 0 0 0 .001 62.617c0 4.813 1.873 9.334 5.277 12.738l28.6 28.6a17.896 17.896 0 0 0 12.738 5.277c4.813 0 9.336-1.874 12.738-5.276l28.6-28.6a17.896 17.896 0 0 0 5.277-12.739 17.905 17.905 0 0 0-5.276-12.738zm-2.617 22.86-28.6 28.6a14.23 14.23 0 0 1-10.122 4.193 14.224 14.224 0 0 1-10.121-4.193L14.48 79.322h18.933l6.304 10.92h13.798l6.898-11.948-6.898-11.949H39.717l-6.304 10.919h-20.99l-4.528-4.528a14.218 14.218 0 0 1-4.194-10.12 14.22 14.22 0 0 1 4.193-10.121l28.6-28.6a14.216 14.216 0 0 1 10.12-4.191c3.826 0 7.418 1.488 10.122 4.191L79.163 46.32H59.82L53.515 35.4H39.717l-6.898 11.95 6.898 11.947h13.798l6.304-10.918h21.4l4.118 4.118a14.222 14.222 0 0 1 4.192 10.121 14.224 14.224 0 0 1-4.191 10.12zm-48.245 5.556 4.762-8.247h9.522l4.762 8.247-4.762 8.247h-9.522l-4.762-8.247zM56.14 47.348l-4.762 8.247h-9.522l-4.762-8.247 4.762-8.247h9.522l4.762 8.247z"/>
    <path d="m60.053 53.479-4.592 7.953h-17.69L33.18 53.48H22.63l-5.275 9.137 5.276 9.136h10.55l4.592-7.952h17.69l4.59 7.952h10.551l5.274-9.136-5.274-9.137z"/>
  </g>
</svg>
