<?xml version="1.0" standalone="no"?>
<!DOCTYPE svg PUBLIC "-//W3C//DTD SVG 20010904//EN"
 "http://www.w3.org/TR/2001/REC-SVG-20010904/DTD/svg10.dtd">
<svg version="1.0" xmlns="http://www.w3.org/2000/svg"
 width="700.000000pt" height="700.000000pt" viewBox="0 0 700.000000 700.000000"
 preserveAspectRatio="xMidYMid meet">
<metadata>
Created by potrace 1.14, written by Peter Selinger 2001-2017
</metadata>
<g transform="translate(0.000000,700.000000) scale(0.100000,-0.100000)"
fill="#000000" stroke="none">
<path d="M3359 6996 c-2 -2 -26 -7 -54 -11 -125 -16 -263 -59 -390 -120 -112
-54 -130 -65 -229 -140 -96 -71 -2337 -2308 -2409 -2405 -109 -145 -190 -313
-233 -483 -35 -137 -39 -177 -38 -352 1 -227 36 -378 134 -580 98 -202 89
-193 1310 -1415 625 -624 1160 -1156 1190 -1181 151 -126 405 -251 558 -275
20 -3 40 -8 44 -10 28 -17 328 -26 438 -12 202 24 431 115 611 244 111 79
2348 2312 2438 2434 108 145 180 294 225 464 33 123 36 147 40 311 7 260 -39
459 -154 673 -93 172 -119 200 -1301 1381 -630 630 -1158 1157 -1174 1170 -50
42 -185 131 -245 161 -120 60 -247 103 -405 136 -33 6 -350 15 -356 10z m363
-298 c159 -34 308 -103 433 -200 35 -28 1785 -1765 1785 -1773 0 0 -326 -1
-725 -1 l-724 0 -68 118 c-90 156 -79 137 -157 273 -38 66 -107 184 -153 263
-46 79 -83 147 -83 152 0 13 48 11 -534 13 -320 1 -504 -2 -512 -8 -7 -5 -51
-77 -99 -160 -47 -82 -90 -157 -95 -165 -5 -8 -37 -64 -72 -124 -35 -60 -70
-120 -78 -135 -9 -14 -45 -77 -80 -139 -36 -62 -72 -125 -81 -140 -15 -27 -13
-31 170 -347 102 -177 219 -378 259 -448 l73 -127 518 0 519 0 172 298 c95
163 182 313 193 332 11 19 40 70 64 113 l45 77 802 0 802 0 195 -197 c191
-193 236 -247 293 -346 64 -111 117 -276 131 -402 7 -63 7 -205 0 -246 -2 -13
-6 -42 -10 -64 -22 -150 -96 -322 -195 -455 -64 -87 -2283 -2304 -2374 -2372
-181 -136 -404 -209 -637 -208 -234 0 -454 73 -640 213 -41 31 -448 430 -922
904 l-847 848 707 1 c772 0 714 4 745 -56 7 -14 22 -41 34 -60 11 -19 32 -55
46 -80 14 -25 98 -171 187 -324 88 -154 161 -283 161 -288 0 -11 -42 -10 531
-12 l516 -1 194 335 c106 184 219 380 251 435 32 55 62 106 66 114 6 10 -17
59 -70 148 -43 74 -78 136 -78 139 0 3 -8 17 -19 32 -10 15 -91 154 -181 310
l-162 282 -518 0 -518 0 -197 -341 c-109 -188 -204 -354 -212 -368 -8 -14 -25
-44 -38 -66 l-23 -40 -789 -3 -789 -2 -215 217 c-241 244 -292 312 -359 473
-32 79 -66 206 -75 280 -7 63 -7 213 -1 250 3 14 7 43 11 65 6 42 42 178 54
204 48 103 96 188 142 251 69 91 2298 2319 2381 2379 119 86 257 147 408 180
120 26 319 26 442 -1z m134 -1441 c7 -4 38 -53 70 -109 32 -57 65 -115 74
-129 148 -255 211 -372 207 -382 -7 -20 -337 -591 -347 -601 -10 -10 -711 -9
-721 1 -6 7 -198 336 -256 441 -13 24 -40 69 -59 100 -18 31 -34 62 -34 67 0
10 315 561 343 600 14 20 25 20 363 20 192 0 354 -3 360 -8z m28 -2362 c13
-22 91 -158 174 -301 84 -144 152 -266 152 -271 0 -5 -34 -67 -75 -138 -41
-70 -75 -129 -75 -130 0 -6 -192 -331 -200 -339 -7 -7 -130 -11 -364 -12
l-353 -1 -174 301 c-96 165 -175 307 -177 314 -2 7 3 24 12 37 9 13 25 41 37
62 11 21 84 147 161 281 l140 242 360 -2 360 -3 22 -40z"/>
<path d="M1701 4181 c-5 -3 -96 -158 -203 -344 l-195 -339 42 -71 c23 -40 104
-180 180 -312 76 -132 147 -254 158 -270 l20 -31 395 1 394 0 75 130 c42 72
87 151 102 176 14 25 58 101 96 167 l70 122 665 0 665 0 105 -181 c58 -100
119 -207 136 -238 17 -31 48 -83 68 -116 l36 -60 395 0 396 -1 110 191 c60
104 114 197 119 205 11 18 101 175 140 243 l27 49 -42 71 c-35 60 -247 428
-330 573 l-24 40 -396 0 -396 -1 -69 -120 c-39 -66 -77 -131 -85 -145 -8 -14
-54 -94 -102 -177 l-88 -153 -666 0 -666 0 -26 48 c-14 26 -91 160 -171 297
l-145 250 -390 1 c-215 0 -395 -2 -400 -5z"/>
</g>
</svg>
